<svg id="Layer_1" data-name="Layer 1" xmlns="http://www.w3.org/2000/svg" viewBox="0 0 1635.9 627.7"><defs><style>.cls-1{fill:#121322;}.cls-2{fill:#c4002a;}.cls-3{font-size:109px;font-family:Futura-Medium, Futura;letter-spacing:0.34em;}</style></defs><title>Zeo-Demander-Logo</title><path class="cls-1" d="M1165.4,368.3a98.4,98.4,0,1,1,83.3-150.7l-125.9,37.2,12.9,43.7,127.6-37.7v.1l50.2-14.8c-11.5-71.6-73.4-126.4-148.2-126.4A150.3,150.3,0,1,0,1313,297l-60.2,17.8A97.84,97.84,0,0,1,1165.4,368.3Z"/><path class="cls-1" d="M1485.6,119.6a150.3,150.3,0,1,0,150.3,150.3A150.31,150.31,0,0,0,1485.6,119.6Zm0,248.7a98.4,98.4,0,1,1,98.4-98.4A98.39,98.39,0,0,1,1485.6,368.3Z"/><polygon class="cls-1" points="1001.5 132.2 761.1 132.2 761.1 187.4 899 187.4 745.7 407.6 1001.5 407.6 1001.5 352.4 851.4 352.4 1001.5 132.2"/><path class="cls-2" d="M674.9,56.4A111.69,111.69,0,0,0,577.2,0H113A112.8,112.8,0,0,0,15.3,169.2L247.4,571.3a112.82,112.82,0,0,0,195.4,0L674.9,169.2l-10-5.8,10,5.8A111.6,111.6,0,0,0,674.9,56.4ZM525.7,208.1l-253,162.2h141l29.2-18.7L344.6,521.8,219,304.5,416.4,178h-141L181,238.6,103.7,104.8H585.4Z"/><text class="cls-3" transform="translate(756.7 539.84) scale(0.95 0.94)">DEMANDER</text></svg>