<svg id="Layer_1" data-name="Layer 1" xmlns="http://www.w3.org/2000/svg" viewBox="0 0 1635.9 627.7"><defs><style>.cls-1{fill:#fff;}.cls-2{fill:#c4002a;}.cls-3{isolation:isolate;}</style></defs><title>Zeo-Demander-Logo-Invert-2</title><path class="cls-1" d="M1165.4,368.3a98.4,98.4,0,1,1,83.3-150.7l-125.9,37.2,12.9,43.7,127.6-37.7v.1l50.2-14.8c-11.5-71.6-73.4-126.4-148.2-126.4A150.3,150.3,0,1,0,1313,297l-60.2,17.8A97.84,97.84,0,0,1,1165.4,368.3Z"/><path class="cls-1" d="M1485.6,119.6a150.3,150.3,0,1,0,150.3,150.3A150.3,150.3,0,0,0,1485.6,119.6Zm0,248.7a98.4,98.4,0,1,1,98.4-98.4,98.4,98.4,0,0,1-98.4,98.4Z"/><polygon class="cls-1" points="1001.5 132.2 761.1 132.2 761.1 187.4 899 187.4 745.7 407.6 1001.5 407.6 1001.5 352.4 851.4 352.4 1001.5 132.2"/><polygon class="cls-1" points="585.4 104.8 525.7 208.1 272.7 370.3 413.7 370.3 442.9 351.6 344.6 521.8 219 304.5 416.4 178 275.4 178 181 238.6 103.7 104.8 585.4 104.8"/><path class="cls-2" d="M674.9,169.2,442.8,571.3a112.82,112.82,0,0,1-195.4,0L15.3,169.2A112.8,112.8,0,0,1,113,0H577.2a112.8,112.8,0,0,1,97.7,169.2ZM525.7,208.1l59.7-103.3H103.7L181,238.6,275.4,178h141L219,304.5,344.6,521.8l98.3-170.2-29.2,18.7h-141Z"/><g class="cls-3"><path class="cls-1" d="M766.05,539.84V462.59h16.38q11.78,0,18.61,2.3a34.94,34.94,0,0,1,13.3,7.65q12.08,10.91,12.08,28.67T813.83,530a36.84,36.84,0,0,1-13.25,7.65q-6.47,2.15-18.35,2.15Zm11.78-11h5.31a44.75,44.75,0,0,0,13.2-1.65,26.84,26.84,0,0,0,9.5-5.55q8.7-7.85,8.7-20.46t-8.6-20.61q-7.74-7.05-22.8-7.05h-5.31Z"/><path class="cls-1" d="M919.52,473.55h-31.3v18.56h30.39v11H888.23v25.82h31.3v11H876.45V462.59h43.08Z"/><path class="cls-1" d="M967.47,539.84l16.43-83,26.8,60,27.76-60,14.76,83h-12.08l-7.53-46.63-23.11,50.18-22.45-50.23-8.39,46.68Z"/><path class="cls-1" d="M1150.83,521.08H1117.4l-8.7,18.76H1096l38.63-82.1,37.26,82.1H1159Zm-4.8-11-11.58-26.27-12.13,26.27Z"/><path class="cls-1" d="M1216.87,539.84v-82.5l56.93,58.94V462.59h11.78v81.95l-56.93-58.78v54.08Z"/><path class="cls-1" d="M1339.5,539.84V462.59h16.38q11.78,0,18.61,2.3a34.94,34.94,0,0,1,13.3,7.65q12.08,10.91,12.08,28.67T1387.28,530a36.84,36.84,0,0,1-13.25,7.65q-6.47,2.15-18.35,2.15Zm11.78-11h5.31a44.75,44.75,0,0,0,13.2-1.65,26.84,26.84,0,0,0,9.5-5.55q8.7-7.85,8.7-20.46t-8.6-20.61q-7.74-7.05-22.8-7.05h-5.31Z"/><path class="cls-1" d="M1493,473.55h-31.3v18.56h30.39v11h-30.39v25.82H1493v11h-43.08V462.59H1493Z"/><path class="cls-1" d="M1570.1,506.92l24.17,32.92h-14.41l-22.3-31.62h-2.12v31.62h-11.78V462.59h13.8q15.47,0,22.35,5.75,7.58,6.4,7.58,16.91a21.8,21.8,0,0,1-4.75,14.11A21.23,21.23,0,0,1,1570.1,506.92Zm-14.66-8.86h3.74q16.74,0,16.74-12.66,0-11.86-16.28-11.86h-4.2Z"/></g></svg>